<?xml version="1.0" encoding="utf-8"?>
<!-- Generator: Adobe Illustrator 21.0.0, SVG Export Plug-In . SVG Version: 6.00 Build 0)  -->
<svg version="1.1" id="Layer_1" xmlns="http://www.w3.org/2000/svg" xmlns:xlink="http://www.w3.org/1999/xlink" x="0px" y="0px"
	 viewBox="0 0 411 203.6" style="enable-background:new 0 0 411 203.6;" xml:space="preserve">
<style type="text/css">
	.st0{fill:#F36E32;}
</style>
<g>
	<path class="st0" d="M129.1,77.6V59.4c0-1.3,1.4-2,2.5-1.3l17.9,12c4.5,3,6.4,8.8,4.3,13.8c-1.3,3.1-3.4,6-6.5,8.3l-16.1-10.8
		C129.8,80.5,129.1,79.1,129.1,77.6z M159.5,81.7L159.5,81.7C159.5,81.7,159.5,81.6,159.5,81.7L159.5,81.7c0-0.2-0.1-0.3-0.3-0.3
		c-0.2,0-0.3,0.1-0.3,0.3c0,0,0,0,0,0h0c-1.4,6.2-5.2,11.5-10.5,14.8l0,0L131.1,108c-1.3,0.9-2,2.3-2,3.8v18.2c0,1.3,1.4,2,2.5,1.3
		l24.4-16.3c2.2-1.5,3.6-4,3.6-6.7L159.5,81.7z M92,122.1l-16.1-10.8c-3,2.2-5.1,5-6.4,8c-2.2,5.1-0.4,11.1,4.2,14.1l17.9,11.9
		c1,0.7,2.4-0.1,2.4-1.3v-18.1C94.1,124.4,93.3,122.9,92,122.1z M118.9,54l-15.1,10.1c-1.3,0.9-2,2.3-2,3.8v18.1
		c0,1.3,1.4,2,2.4,1.3l15.1-10.1c1.3-0.9,2-2.3,2-3.8V55.3C121.3,54.1,119.9,53.3,118.9,54z M118.9,84.3l-15.1,10.1
		c-1.3,0.9-2,2.3-2,3.8v50.1c0,1.3,1.4,2,2.4,1.3l15.1-10.1c1.3-0.9,2-2.3,2-3.8V85.6C121.3,84.3,119.9,83.6,118.9,84.3z M91.6,72.2
		L67.3,88.5c-2.2,1.5-3.6,4-3.6,6.7l0,26.7h0c0,0,0,0,0,0v0c0,0.2,0.1,0.3,0.3,0.3c0.2,0,0.3-0.1,0.3-0.3c0,0,0,0,0,0h0
		c1.4-6.2,5.2-11.5,10.4-14.8l0,0L92,95.5c1.3-0.9,2-2.3,2-3.8V73.5C94.1,72.3,92.7,71.5,91.6,72.2z"/>
	<path class="st0" d="M182.8,79.2v7.3c0,0.4-0.3,0.7-0.7,0.7h-6.5c-0.4,0-0.7-0.3-0.7-0.7v-7.3c0-0.4,0.3-0.7,0.7-0.7h6.5
		C182.4,78.5,182.8,78.8,182.8,79.2z M182,92.2h-6.4c-0.4,0-0.7,0.3-0.7,0.7v37.9c0,0.4,0.3,0.7,0.7,0.7h6.4c0.4,0,0.7-0.3,0.7-0.7
		V93C182.8,92.6,182.4,92.2,182,92.2z M204.7,91.6c-1.4,0-2.8,0.4-4,1c-0.5,0.3-0.9,0.6-1.4,1c-0.5,0.4-1.2,0.1-1.2-0.5V93
		c0-0.4-0.3-0.7-0.7-0.7h-6.1c-0.4,0-0.7,0.3-0.7,0.7v37.9c0,0.4,0.3,0.7,0.7,0.7h6.4c0.4,0,0.7-0.3,0.7-0.7v-27.6
		c0-3.1,1.7-4.6,3.9-4.6c2.2,0,3.9,1.5,3.9,4.6v27.6c0,0.4,0.3,0.7,0.7,0.7h6.4c0.4,0,0.7-0.3,0.7-0.7v-27.6c0-4.6-0.7-6.7-2.2-8.5
		C210.1,92.6,207.9,91.6,204.7,91.6z M236.1,124.4c-3.3-0.2-4.9-1.9-4.9-5.3V99c0-0.4,0.3-0.7,0.7-0.7h4c0.4,0,0.7-0.3,0.7-0.7v-4.6
		c0-0.4-0.3-0.7-0.7-0.7h-4c-0.4,0-0.7-0.3-0.7-0.7v-8.6c0-0.4-0.3-0.7-0.7-0.7H224c-0.4,0-0.7,0.3-0.7,0.7v8.6
		c0,0.4-0.3,0.7-0.7,0.7h-2.6c-0.4,0-0.7,0.3-0.7,0.7v4.6c0,0.4,0.3,0.7,0.7,0.7h2.6c0.4,0,0.7,0.3,0.7,0.7v20.6
		c0,4.6,1.5,7.6,4,9.6c2.5,2,5.4,2.3,8.8,2.4c0.4,0,0.7-0.3,0.7-0.7v-5.6C236.7,124.8,236.4,124.5,236.1,124.4z M248.8,114.9
		c0,4.1,0.3,7.2,1.2,8.6c0.6,0.9,1.6,1.6,3.1,1.6c1.3,0,2.3-0.5,3-1.5c0.6-0.7,0.9-1.8,0.9-2.9c0-0.4,0.4-0.7,0.7-0.7h6.4
		c0.4,0,0.8,0.4,0.7,0.8c-0.2,3.2-1.1,5.9-3.3,8.2c-2.1,2.2-4.9,3.1-8.5,3.1c-3.5,0-6.1-0.7-8.5-3.2c-3.3-3.4-3.7-9.9-3.7-17.1
		c0-7.1,0.4-13.7,3.7-17.1c2.4-2.5,5.2-3.1,8.4-3.1c3.3,0,6,0.7,8.4,3.1c3.1,3.1,3.6,9.6,3.7,18.7c0,0.4-0.3,0.7-0.7,0.7h-14.8
		C249.2,114.2,248.8,114.5,248.8,114.9z M249.6,108.3h6.9c0.4,0,0.7-0.3,0.7-0.7c0-4.1-0.3-6.3-1.1-7.4c-0.7-1-1.6-1.6-3.1-1.6
		c-1.5,0-2.4,0.6-3.1,1.6c-0.8,1.1-1.1,3.3-1.1,7.4C248.8,108,249.2,108.3,249.6,108.3z M287.9,91.6c-2,0.1-3.8,0.7-5.3,1.6
		c-0.8,0.5-1.5,1.1-2.2,1.7c-0.5,0.4-1.2,0.1-1.2-0.5V93c0-0.4-0.3-0.7-0.7-0.7h-6.1c-0.4,0-0.7,0.3-0.7,0.7v37.9
		c0,0.4,0.3,0.7,0.7,0.7h6.4c0.4,0,0.7-0.3,0.7-0.7v-24.7c0-4.3,2.8-6.8,6.6-6.8h2c0.4,0,0.7-0.3,0.7-0.7v-6.2
		C288.7,92,288.3,91.6,287.9,91.6z M315.8,93v39.3c0,5.1-1.2,8.1-3.4,10.2c-2,2-5.3,3.2-8.5,3.2c-3.3,0-6.4-1-8.5-3.1
		c-2.3-2.2-3.1-5-3.3-7.9c0-0.4,0.3-0.8,0.7-0.8h6.4c0.4,0,0.7,0.3,0.7,0.7c0.1,1.2,0.4,2.2,1,3c0.7,0.8,1.7,1.2,2.9,1.2
		c1.2,0,2.2-0.4,2.8-1.3c0.7-1,1.1-2.4,1.1-4.9v-4.9c0-0.6-0.8-1-1.2-0.5c-0.3,0.3-0.6,0.5-0.9,0.8c-1.1,0.7-2.4,1-4,1
		c-3,0-4.9-0.9-6.7-2.9c-2.5-3-3.1-7.3-3.1-15.9c0-8.5,0.6-12.8,3.1-15.8c1.8-2,3.7-2.9,6.7-2.9c1.6,0,3,0.3,4.1,1
		c0.4,0.3,0.8,0.5,1.1,0.8c0.5,0.4,1.2,0.1,1.2-0.5c0-0.4,0.3-0.7,0.7-0.7h6.1C315.5,92.2,315.8,92.6,315.8,93z M307.9,103.4
		c0-1.7-0.4-2.8-1.2-3.7c-0.7-0.7-1.6-1.1-2.7-1.1c-1.1,0-2.2,0.6-2.9,1.6c-1,1.3-1.3,3.8-1.3,10.3c0,6.5,0.2,9,1.3,10.3
		c0.7,0.9,1.8,1.5,2.9,1.5c1.1,0,1.9-0.3,2.7-1c0.8-0.8,1.2-1.9,1.2-3.7V103.4z M346.5,92.2h-7.2c-0.4,0-0.7,0.2-0.7,0.6l-4.3,22.5
		c-0.2,0.8-1.3,0.8-1.4,0l-4.4-22.5c-0.1-0.3-0.4-0.6-0.7-0.6h-7.2c-0.5,0-0.8,0.4-0.7,0.9l9.5,38.2c0,0.1,0,0.2,0,0.4l-0.6,2.6
		c-0.9,3.5-3.2,4-6.3,4.1c-0.4,0-0.7,0.3-0.7,0.7v5.6c0,0.4,0.3,0.7,0.7,0.7c6.8-0.1,12.1-1.2,14-8.8l10.8-43.4
		C347.3,92.7,347,92.2,346.5,92.2z"/>
</g>
</svg>
